<svg width="259" height="260" viewBox="0 0 259 260" fill="none" xmlns="http://www.w3.org/2000/svg">
<g clip-path="url(#clip0_103_19)">
<path d="M228.545 213.274C177.444 275.611 81.3929 275.611 30.5087 213.274C28.0431 208.504 29.8043 204.059 31.5654 199.723C41.8073 174.219 58.6603 154.976 83.6688 143.05C93.6669 138.253 93.5855 138.09 86.6763 130.041C79.4364 121.444 74.9463 110.87 73.7884 99.6896C72.6305 88.5091 74.8583 77.2384 80.1828 67.34C85.5072 57.4416 93.6825 49.3724 103.648 44.179C113.614 38.9856 124.91 36.9079 136.07 38.2155C156.717 40.0314 177.905 56.8895 182.836 77.4878C187.497 97.002 185.844 116.164 170.86 131.396C164.683 137.711 167.473 139.527 173.57 142.237C199.391 153.864 216.922 173.487 227.489 199.723C229.25 204.059 230.984 208.504 228.545 213.274Z" fill="#333D5A"/>
<path d="M228.545 213.274C220.011 175.791 195.571 152.889 159.724 138.795C178.013 124.891 184.11 106.596 181.942 84.9682C180.501 73.4921 174.992 62.9138 166.417 55.1548C156.373 45.734 143.12 40.491 129.351 40.491C115.582 40.491 102.329 45.734 92.2852 55.1548C80.3363 66.7549 76.0282 81.3092 76.543 98.3029C77.1662 115.784 86.7308 127.574 98.6526 138.958C63.4292 152.997 39.0438 175.845 30.4005 213.356C7.58663 185.9 -2.8449 154 0.596153 118.684C6.01513 60.3586 47.9038 12.9823 106.591 2.14106C175.223 -10.4619 242.906 34.8545 256.236 103.696C264.067 144.215 255.207 181.184 228.545 213.274Z" fill="#151B2D"/>
</g>
<defs>
<clipPath id="clip0_103_19">
<rect width="259" height="260" fill="white"/>
</clipPath>
</defs>
</svg>
