<svg width="192" height="192" viewBox="0 0 192 192" fill="none" xmlns="http://www.w3.org/2000/svg">
<path d="M73.7891 2.56573C92.5406 -1.73071 110.705 -0.592816 128.536 5.69064C151.324 13.7211 168.566 28.6199 180.022 49.6284C206.734 98.615 187.341 159.785 136.059 183.409C130.415 186.009 124.345 187.767 118.352 189.501C114.349 190.659 110.133 191.081 105.491 191.927C105.491 190.326 105.482 189.162 105.493 187.999C105.599 176.3 105.782 164.601 105.772 152.902C105.769 149.624 106.871 147.433 109.869 145.984C112.743 144.595 115.459 142.878 118.055 140.721C107.198 140.721 96.3397 140.721 84.4338 140.721C86.3215 141.619 87.3966 142.198 88.5219 142.654C95.2314 145.37 98.0362 149.275 98.0733 156.408C98.1347 168.22 98.09 180.032 98.09 191.826C60.8065 194.358 15.3667 169.134 2.71583 120.04C23.0333 113.952 43.3565 107.862 63.8721 101.714C63.7235 100.289 63.5894 99.0025 63.4553 97.7164C70.7795 92.2439 80.2157 92.7929 87.1143 99.4408C85.4138 100.016 83.9452 100.576 82.4396 101.008C80.0971 101.679 79.4164 103.104 80.1353 105.395C81.6109 110.096 83.033 114.814 84.4589 119.53C85.1837 121.927 86.5639 122.789 89.1003 122.005C98.7434 119.027 108.419 116.154 118.383 113.15C116.236 106.349 114.111 99.6192 111.873 92.5342C109.143 93.1128 106.532 93.6662 103.393 94.3313C105.372 90.6232 107.36 87.5678 108.642 84.2404C109.388 82.3035 109.818 79.5485 109.004 77.8122C98.5331 55.4934 84.6752 35.4444 67.7675 17.5042C67.4539 17.1715 67.0287 16.944 65.984 17.0078C66.4791 18.062 66.9584 19.1238 67.4716 20.1691C72.6155 30.6455 77.8455 41.0808 82.8659 51.6161C84.4696 54.9813 83.4084 58.1676 80.4528 60.5424C79.5197 61.2921 78.4508 61.8773 77.4248 62.5064C74.3669 64.3811 72.9654 66.9621 73.2902 70.6679C73.744 75.846 73.3796 76.2089 68.3335 77.7806C65.1294 78.7786 61.9037 79.7073 58.5597 80.7054C57.8354 79.266 57.2048 78.0128 56.4494 76.5114C37.5834 82.1404 18.8259 87.737 0.0258123 93.3463C-0.91842 59.6998 24.0498 14.0291 73.7891 2.56573Z" fill="#059669"/>
</svg>
